<?xml version="1.0" encoding="iso-8859-1"?>
<!-- Generator: Adobe Illustrator 19.0.0, SVG Export Plug-In . SVG Version: 6.00 Build 0)  -->
<svg version="1.1" id="Layer_1" xmlns="http://www.w3.org/2000/svg" xmlns:xlink="http://www.w3.org/1999/xlink" x="0px" y="0px"
	 viewBox="0 0 480 480" style="enable-background:new 0 0 480 480;" xml:space="preserve">
<g>
	<g>
		<g>
			<path d="M470,444.538h-82.773v-82.773c0-5.523-4.478-10-10-10H330.84c-5.522,0-10,4.477-10,10v82.773h-26.386v-129.16
				c0-5.523-4.478-10-10-10h-46.387c-5.523,0-10,4.477-10,10v129.16H201.68V272.857c0-5.523-4.477-10-10-10h-42.52
				c-5.523,0-10,4.477-10,10v171.681h-26.386V195.547c0-5.523-4.477-10-10-10H56.387c-5.523,0-10,4.477-10,10v248.991H20V25.462
				c0-5.523-4.477-10-10-10s-10,4.477-10,10v429.076c0,5.523,4.477,10,10,10h46.387h46.387h46.386h42.521h46.387h46.387h46.386
				h46.387H470c5.522,0,10-4.477,10-10S475.522,444.538,470,444.538z M92.774,444.538H66.387V205.547h26.387V444.538z
				 M181.681,444.538H159.16V282.857h22.521V444.538z M274.454,444.538h-26.387v-119.16h26.387V444.538z M367.227,444.538H340.84
				v-72.773h26.387V444.538z"/>
			<path d="M134.038,130.357c0.041,0.552,0.125,1.099,0.256,1.637l7.04,37.552c0.901,4.806,5.1,8.159,9.817,8.159
				c0.611,0,1.231-0.057,1.854-0.173c5.428-1.018,9.004-6.243,7.986-11.671l-2.825-15.068l261.531,170.323
				c1.685,1.098,3.576,1.622,5.447,1.622c3.269,0,6.473-1.601,8.39-4.544c3.014-4.628,1.705-10.823-2.923-13.836L170.102,134.699
				l15.064-2.877c5.425-1.036,8.982-6.273,7.946-11.698s-6.277-8.982-11.698-7.946l-39.29,7.504
				c-4.55,0.869-7.777,4.697-8.089,9.112c-0.003,0.033-0.004,0.067-0.007,0.1c-0.013,0.223-0.022,0.445-0.02,0.67
				c-0.001,0.241,0.009,0.48,0.025,0.72C134.035,130.308,134.036,130.333,134.038,130.357z"/>
		</g>
	</g>
</g>
<g>
</g>
<g>
</g>
<g>
</g>
<g>
</g>
<g>
</g>
<g>
</g>
<g>
</g>
<g>
</g>
<g>
</g>
<g>
</g>
<g>
</g>
<g>
</g>
<g>
</g>
<g>
</g>
<g>
</g>
</svg>
