<?xml version="1.0" encoding="iso-8859-1"?>
<!-- Generator: Adobe Illustrator 19.0.0, SVG Export Plug-In . SVG Version: 6.00 Build 0)  -->
<svg version="1.1" id="Layer_1" xmlns="http://www.w3.org/2000/svg" xmlns:xlink="http://www.w3.org/1999/xlink" x="0px" y="0px"
	 viewBox="0 0 301.175 301.175" style="enable-background:new 0 0 301.175 301.175;" xml:space="preserve">
<g>
	<g>
		<g id="XMLID_19_">
			<g>
				<path style="fill:#FEDE94;" d="M237.223,201.116v64.496h-31.047v-71.16C216.045,196.951,226.426,199.162,237.223,201.116z"/>
				<path style="fill:#AAE1E9;" d="M158.565,179.105v86.508H127.55V165.007C137.195,170.005,147.511,174.715,158.565,179.105z"/>
				<path style="fill:#F47C6D;" d="M77.601,132.711v132.901H46.586V103.683C55.301,113.263,65.618,123.067,77.601,132.711z"/>
				<path style="fill:#2D213F;" d="M301.175,194.58L260.42,217.2l-0.032-12.496c-2.307-0.288-4.518-0.641-6.792-0.961v61.933h2.563
					c4.55,0,8.202,3.62,8.202,8.138c0,4.486-3.653,8.138-8.202,8.138H8.202C3.685,281.953,0,278.3,0,273.814V27.62
					c0-4.197,3.204-7.593,7.273-8.042c0.16-0.032,0.288-0.096,0.449-0.128c5.158-1.057,10.349,1.666,11.566,6.023
					c1.634,5.703,40.883,135.464,241.036,162.762l-0.032-13.361L301.175,194.58z M237.223,265.612v-64.496
					c-10.797-1.954-21.178-4.165-31.047-6.664v71.16H237.223z M189.804,265.676v-75.774c-5.062-1.506-10.028-3.076-14.834-4.742
					v80.516H189.804z M158.565,265.612v-86.508c-11.054-4.389-21.371-9.099-31.015-14.098v100.605L158.565,265.612L158.565,265.612z
					 M111.146,265.676V155.908c-6.023-3.588-11.727-7.273-17.141-11.022v120.79C94.005,265.676,111.146,265.676,111.146,265.676z
					 M77.601,265.612V132.711c-11.983-9.644-22.3-19.448-31.015-29.028v161.929H77.601z M30.182,265.676V83.754
					c-5.479-7.401-10.028-14.386-13.777-20.762v202.684H30.182z"/>
			</g>
		</g>
	</g>
</g>
<g>
</g>
<g>
</g>
<g>
</g>
<g>
</g>
<g>
</g>
<g>
</g>
<g>
</g>
<g>
</g>
<g>
</g>
<g>
</g>
<g>
</g>
<g>
</g>
<g>
</g>
<g>
</g>
<g>
</g>
</svg>
