<?xml version="1.0" encoding="iso-8859-1"?>
<!-- Generator: Adobe Illustrator 16.0.0, SVG Export Plug-In . SVG Version: 6.00 Build 0)  -->
<!DOCTYPE svg PUBLIC "-//W3C//DTD SVG 1.1//EN" "http://www.w3.org/Graphics/SVG/1.1/DTD/svg11.dtd">
<svg version="1.1" id="Capa_1" xmlns="http://www.w3.org/2000/svg" xmlns:xlink="http://www.w3.org/1999/xlink" x="0px" y="0px"
	 width="350px" height="350px" viewBox="0 0 350 350" style="enable-background:new 0 0 350 350;" xml:space="preserve">
<g>
	<g>
		<polygon points="40,310 40,0 0,0 0,350 350,350 350,310 		"/>
		<polygon points="125.068,211.467 109.173,211.467 109.173,195.572 93.277,195.572 93.277,211.467 77.382,211.467 77.382,227.363 
			93.277,227.363 93.277,243.258 109.173,243.258 109.173,227.363 125.068,227.363 		"/>
		<polygon points="162.911,143.209 147.016,143.209 147.016,127.314 131.12,127.314 131.12,143.209 115.225,143.209 
			115.225,159.105 131.12,159.105 131.12,175 147.016,175 147.016,159.105 162.911,159.105 		"/>
		<polygon points="210.596,187.624 194.701,187.624 194.701,171.729 178.807,171.729 178.807,187.624 162.911,187.624 
			162.911,203.521 178.807,203.521 178.807,219.415 194.701,219.415 194.701,203.521 210.596,203.521 		"/>
		<polygon points="234.439,122.896 218.544,122.896 218.544,107.001 202.648,107.001 202.648,122.896 186.753,122.896 
			186.753,138.792 202.648,138.792 202.648,154.687 218.544,154.687 218.544,138.792 234.439,138.792 		"/>
		<polygon points="302.229,131.509 286.333,131.509 286.333,115.614 270.438,115.614 270.438,131.509 254.543,131.509 
			254.543,147.405 270.438,147.405 270.438,163.3 286.333,163.3 286.333,147.405 302.229,147.405 		"/>
		<polygon points="313.079,63.847 297.184,63.847 297.184,47.952 281.288,47.952 281.288,63.847 265.393,63.847 265.393,79.743 
			281.288,79.743 281.288,95.638 297.184,95.638 297.184,79.743 313.079,79.743 		"/>
	</g>
</g>
<g>
</g>
<g>
</g>
<g>
</g>
<g>
</g>
<g>
</g>
<g>
</g>
<g>
</g>
<g>
</g>
<g>
</g>
<g>
</g>
<g>
</g>
<g>
</g>
<g>
</g>
<g>
</g>
<g>
</g>
</svg>
