<svg id="Capa_1" enable-background="new 0 0 512 512" height="512" viewBox="0 0 512 512" width="512" xmlns="http://www.w3.org/2000/svg"><g><path d="m458.496 367.804c6.783 10.715 10.705 23.417 10.705 37.024 0 38.321-31.065 69.386-69.386 69.386-15.141 0-29.15-4.848-40.544-13.083-.433 28.162-23.396 50.869-51.661 50.869-14.266 0-27.194-5.785-36.541-15.131-9.356-9.357-15.141-22.274-15.141-36.541l-10.293-15.279.01-381.522 10.293-17.611c0-25.361 20.545-45.916 45.907-45.916 12.681 0 24.168 5.136 32.475 13.443 8.306 8.317 13.443 19.794 13.443 32.475v11.703c6.433-1.976 13.257-3.026 20.329-3.026 38.321 0 69.375 31.065 69.375 69.386 0 8.039-1.369 15.759-3.881 22.943 33.638 4.807 59.484 33.72 59.484 68.676 0 24.487-12.691 46-31.826 58.352 20.349 5.702 35.295 24.405 35.295 46.587.001 23.169-16.304 42.52-38.043 47.265z" fill="#c9ebfa"/><g fill="#a0ddf3"><path d="m323.06 509.653c-4.879 1.523-10.067 2.347-15.45 2.347-14.266 0-27.194-5.785-36.541-15.131-9.356-9.357-15.141-22.274-15.141-36.541l-10.293-15.275v-112.164l.01-153.347v-116.013l10.293-17.612c0-25.362 20.545-45.917 45.907-45.917 5.424 0 10.622.937 15.45 2.656-17.766 6.341-30.478 23.314-30.478 43.262v133.625l-.01 153.347v127.439c0 14.266 5.785 27.184 15.141 36.541 5.826 5.825 13.042 10.272 21.112 12.783z"/><path d="m327.167 75.665c-2.376 0-4.72-1.094-6.233-3.157-2.52-3.44-1.775-8.271 1.664-10.791 6.96-5.099 14.67-8.961 22.916-11.479 4.081-1.242 8.393 1.051 9.638 5.128 1.245 4.078-1.051 8.393-5.128 9.638-6.585 2.01-12.742 5.095-18.298 9.167-1.377 1.008-2.975 1.494-4.559 1.494z"/><path d="m398.777 193.945c-2.846 0-5.584-1.58-6.929-4.305-1.887-3.823-.318-8.452 3.506-10.339 14.374-7.096 25.656-19.827 30.954-34.931 1.41-4.023 5.814-6.143 9.84-4.729 4.023 1.411 6.141 5.816 4.729 9.84-6.622 18.881-20.724 34.798-38.69 43.666-1.097.54-2.263.798-3.41.798z"/><path d="m458.502 375.524h-.011c-2.652 0-5.118-1.361-6.532-3.605-3.789-6.014-8.555-11.288-14.167-15.676-3.358-2.627-3.952-7.478-1.326-10.837s7.478-3.951 10.837-1.326c6.95 5.434 12.863 11.957 17.582 19.39.84 1.235 1.331 2.727 1.331 4.333 0 4.265-3.45 7.721-7.714 7.721z"/><path d="m359.26 468.852c-1.562 0-3.138-.472-4.502-1.454-9.519-6.847-17.472-15.94-23.002-26.294-2.008-3.761-.587-8.439 3.173-10.447 3.763-2.008 8.439-.586 10.447 3.173 4.423 8.284 10.785 15.557 18.398 21.035 3.461 2.49 4.248 7.314 1.758 10.775-1.508 2.097-3.873 3.212-6.272 3.212z"/><path d="m431.39 282.878c-3.143 0-6.096-1.934-7.245-5.055-1.473-4.001.576-8.439 4.578-9.911 6.238-2.297 12.78-3.461 19.445-3.461 5.156 0 10.254.696 15.153 2.067 4.105 1.15 6.502 5.41 5.353 9.516-1.15 4.105-5.405 6.505-9.516 5.353-3.543-.993-7.241-1.496-10.99-1.496-4.839 0-9.587.844-14.112 2.51-.88.323-1.78.477-2.666.477z"/></g><path d="m365.405 262.907h-32.67c-4.264 0-7.72-3.456-7.72-7.72s3.456-7.72 7.72-7.72h32.67c4.264 0 7.72 3.456 7.72 7.72-.001 4.264-3.456 7.72-7.72 7.72z" fill="#548eb5"/><path d="m293.302 187.41c-4.264 0-7.72-3.456-7.72-7.72v-52.495c0-4.264 3.456-7.72 7.72-7.72h41.508c4.264 0 7.72 3.456 7.72 7.72s-3.456 7.72-7.72 7.72h-33.788v44.775c0 4.264-3.456 7.72-7.72 7.72z" fill="#548eb5"/><path d="m334.811 392.957h-41.508c-4.264 0-7.72-3.456-7.72-7.72v-52.495c0-4.264 3.456-7.72 7.72-7.72s7.72 3.456 7.72 7.72v44.775h33.788c4.264 0 7.72 3.456 7.72 7.72s-3.456 7.72-7.72 7.72z" fill="#548eb5"/><g><g><path d="m355.397 218.14h-22.662c-4.264 0-7.72-3.456-7.72-7.72s3.456-7.72 7.72-7.72h22.662c4.264 0 7.72 3.456 7.72 7.72s-3.456 7.72-7.72 7.72z" fill="#548eb5"/></g></g><g><g><path d="m355.397 309.732h-22.662c-4.264 0-7.72-3.456-7.72-7.72s3.456-7.72 7.72-7.72h22.662c4.264 0 7.72 3.456 7.72 7.72s-3.456 7.72-7.72 7.72z" fill="#548eb5"/></g></g><circle cx="385.23" cy="256.216" fill="#b3e59f" r="20.586"/><circle cx="355.397" cy="127.195" fill="#b3e59f" r="20.586"/><circle cx="355.397" cy="385.237" fill="#b3e59f" r="20.586"/><path d="m332.735 194.982v122.468c0 8.523-6.907 15.44-15.44 15.44h-71.661l.01-153.347h71.65c8.534 0 15.441 6.906 15.441 15.439z" fill="#b3e59f"/><path d="m245.64 179.543h41.172v153.347h-41.172z" fill="#95d6a4"/><path d="m245.645 220.715h45.918v71.002h-45.918z" fill="#eefaff"/><path d="m256.062 45.917v414.411c0 14.266-5.785 27.184-15.131 36.541-9.346 9.346-22.274 15.131-36.541 15.131-27.503 0-51.249-23.448-51.661-50.868-11.436 8.255-26.433 13.082-40.545 13.082-38.321 0-69.386-31.065-69.386-69.386 0-13.607 3.922-26.309 10.695-37.024-21.739-4.745-38.033-24.096-38.033-47.266 0-11.271 3.86-21.646 10.334-29.871 6.248-7.957 14.946-13.916 24.961-16.716-19.639-12.671-31.826-34.893-31.826-58.351 0-23.993 12.177-45.135 30.684-57.58 8.255-5.661 19.022-9.696 28.79-11.096-3.17-9.223-4.395-18.579-3.685-28.059 2.409-33.278 28.316-60.05 61.203-63.817 9.521-1.081 18.96-.226 28.306 2.573-1.801-15.512 2.131-32.845 13.443-44.178 8.316-8.307 19.793-13.443 32.474-13.443 24.961 0 45.269 19.917 45.907 44.724.011.401.011.802.011 1.193z" fill="#ffdec7"/><g><g><g><path d="m175.921 55.048c9.521-1.081 18.96-.226 28.306 2.573-1.801-15.512 2.131-32.845 13.443-44.178 3.612-3.608 7.822-6.615 12.465-8.865-6.044-2.929-12.824-4.578-19.991-4.578-12.681 0-24.158 5.136-32.475 13.443-11.267 11.287-15.208 28.527-13.46 43.991 3.781-1.117 7.693-1.926 11.712-2.386z" fill="#fec5a5"/></g><g><path d="m82.799 404.828c0-13.608 3.922-26.309 10.695-37.024-21.739-4.745-38.033-24.096-38.033-47.266 0-11.271 3.86-21.646 10.334-29.871 6.248-7.957 14.946-13.916 24.961-16.716-19.64-12.671-31.827-34.893-31.827-58.351 0-23.993 12.177-45.135 30.684-57.58 8.255-5.661 19.022-9.696 28.79-11.096-3.17-9.223-4.395-18.579-3.685-28.059 2.106-29.095 22.175-53.216 49.166-61.338-9.234-2.719-18.558-3.547-27.963-2.479-32.887 3.767-58.794 30.54-61.203 63.817-.71 9.48.515 18.836 3.685 28.059-9.768 1.4-20.535 5.435-28.79 11.096-18.507 12.444-30.684 33.586-30.684 57.58 0 23.458 12.187 45.681 31.826 58.352-10.015 2.8-18.713 8.759-24.961 16.716-6.474 8.224-10.334 18.6-10.334 29.871 0 23.17 16.294 42.521 38.033 47.266-6.773 10.715-10.695 23.417-10.695 37.024 0 38.321 31.065 69.386 69.386 69.386 6.557 0 13.301-1.054 19.794-2.998-28.463-8.653-49.179-35.097-49.179-66.389z" fill="#fec5a5"/></g></g></g><path d="m256.062 96.982v17.745c-13.7 10.447-30.149 15.676-46.607 15.676-17.869 0-35.769-6.166-50.21-18.548-3.242-2.769-3.613-7.648-.834-10.88 2.769-3.242 7.648-3.613 10.88-.834 23.581 20.205 58.65 19.711 81.573-1.153 1.482-1.337 3.345-2.006 5.198-2.006z" fill="#fec5a5"/><path d="m214.454 263.187c-23.535 11.254-39.707 33.868-43.175 59.334-17.756 6.474-32.334 19.033-41.39 35.832-2.023 3.752-.621 8.436 3.132 10.458 1.166.628 2.419.926 3.657.926 2.747 0 5.407-1.47 6.802-4.058 6.246-11.587 15.781-20.648 27.393-26.248 1.551 18.322 9.48 35.291 22.753 48.341 1.503 1.478 3.458 2.214 5.411 2.214 1.998 0 3.995-.771 5.505-2.308 2.989-3.04 2.948-7.928-.093-10.917-11.889-11.688-18.437-27.306-18.437-43.976 0-23.621 13.778-45.473 35.101-55.668 3.846-1.84 5.474-6.449 3.634-10.295-1.838-3.847-6.447-5.473-10.293-3.635z" fill="#fec5a5"/><path d="m185.99 173.987c-2.632-.888-5.652-.319-7.8 1.732-3.084 2.943-3.198 7.83-.254 10.914.949.994 2.146 1.712 3.448 2.092l-.001.001c16.009 4.66 29.181 15.307 37.09 29.981 1.395 2.588 4.054 4.059 6.802 4.058 1.237 0 2.492-.298 3.656-.926 3.753-2.022 5.156-6.705 3.133-10.458-9.838-18.254-26.194-31.525-46.074-37.394z" fill="#fec5a5"/></g></svg>