<svg id="Capa_1" enable-background="new 0 0 512 512" height="512" viewBox="0 0 512 512" width="512" xmlns="http://www.w3.org/2000/svg"><g><path d="m490.033 312.425v-51.18c0-62.739-24.404-121.896-68.716-166.571-44.334-44.698-103.049-69.314-165.331-69.314-62.281 0-120.997 24.616-165.331 69.314-44.312 44.676-68.716 103.832-68.716 166.571v51.182c-13.878 5.604-21.939 16.205-21.939 29.407v69.901c0 15.473 11.065 27.378 29.592 31.845l44.246 10.707c1.735 18.13 16.961 32.355 35.433 32.355 19.631 0 35.602-16.065 35.602-35.812v-28.777c0-5.526-4.48-10.006-10.006-10.006s-10.006 4.48-10.006 10.006v28.777c0 8.712-6.994 15.8-15.59 15.8s-15.59-7.087-15.59-15.8v-148.09c0-8.711 6.994-15.799 15.59-15.799s15.59 7.087 15.59 15.799v28.778c0 5.526 4.48 10.006 10.006 10.006s10.006-4.48 10.006-10.006v-28.778c0-19.746-15.971-35.811-35.602-35.811-18.48 0-33.712 14.237-35.435 32.38l-31.885 7.697v-45.76c0-49.61 16.689-95.357 44.688-131.854 4.426 1.518 8.208 2.992 11.656 4.34 18.256 7.137 27.996 9.781 49.74-7.895 30.274-24.595 68.611-38.14 107.95-38.14s77.676 13.545 107.952 38.141c12.077 9.808 20.45 13.359 28.63 13.359 6.566 0 13.007-2.289 21.134-5.468 3.442-1.346 7.217-2.818 11.632-4.335 27.998 36.496 44.686 82.242 44.686 131.852v45.758l-31.856-7.695c-1.723-18.143-16.954-32.381-35.435-32.381-19.631 0-35.602 16.064-35.602 35.811v148.09c0 19.746 15.971 35.812 35.602 35.812 18.472 0 33.699-14.226 35.433-32.356l44.209-10.703c18.554-4.473 29.63-16.379 29.63-31.847v-69.901c0-13.201-8.073-23.803-21.967-29.409zm-470.021 99.31v-69.901c0-8.077 9.986-11.358 14.281-12.393l39.376-9.506v113.72l-39.379-9.529c-5.332-1.285-14.278-4.604-14.278-12.391zm386.399-296.644c-6.729 2.631-11.17 4.376-14.507 4.069-3.46-.314-8.194-3.046-15.349-8.857-33.83-27.484-76.649-42.62-120.569-42.62s-86.739 15.136-120.572 42.623c-7.145 5.809-11.872 8.539-15.325 8.854-3.327.314-7.775-1.435-14.507-4.067-1.58-.618-3.296-1.286-5.134-1.983 39.047-41.683 94.33-67.738 155.539-67.738 61.21 0 116.495 26.056 155.542 67.741-1.832.695-3.543 1.362-5.118 1.978zm11.908 335.738c0 8.712-6.993 15.8-15.59 15.8s-15.59-7.087-15.59-15.8v-148.09c0-8.711 6.994-15.799 15.59-15.799s15.59 7.087 15.59 15.799zm73.669-39.094c0 7.781-8.964 11.103-14.316 12.394l-39.34 9.525v-113.717l39.349 9.505c4.302 1.037 14.308 4.321 14.308 12.392v69.901z"/><path d="m334.757 395.841h-27.92c-2.983 0-5.812 1.332-7.713 3.631l-13.612 16.469-21.076-33.229c-1.835-2.893-5.024-4.646-8.45-4.646 0 0-.001 0-.002 0-3.427.001-6.615 1.755-8.449 4.65l-21.05 33.22-13.608-16.464c-1.901-2.299-4.729-3.631-7.713-3.631h-27.948c-5.526 0-10.006 4.48-10.006 10.006s4.48 10.006 10.006 10.006h23.237l19.391 23.461c1.907 2.307 4.74 3.631 7.712 3.631.21 0 .42-.007.631-.02 3.198-.202 6.107-1.924 7.822-4.631l19.982-31.535 20.005 31.539c1.716 2.706 4.624 4.426 7.822 4.627 3.192.193 6.299-1.142 8.34-3.612l19.391-23.461h23.209c5.526 0 10.006-4.48 10.006-10.006-.001-5.525-4.481-10.005-10.007-10.005z"/><path d="m360.563 180.158c-2.218-1.927-5.171-2.782-8.074-2.335-22.86 3.502-43.083 11.795-59.635 24.267-4.382-20.371-14.288-40.049-29.214-57.773-1.902-2.257-4.702-3.561-7.654-3.561s-5.753 1.304-7.654 3.561c-14.931 17.73-24.833 37.406-29.201 57.768-16.547-12.469-36.765-20.761-59.62-24.262-2.904-.445-5.856.408-8.073 2.333-2.218 1.925-3.479 4.727-3.447 7.664.345 32.355 10.445 60.958 29.207 82.717 18.717 21.706 45.334 35.763 76.982 40.672.023.004.047.008.07.012.074.012.147.027.221.038.136.021.273.032.41.047.091.01.182.024.274.031.277.023.555.037.831.037s.554-.014.831-.037c.091-.008.182-.021.273-.031.137-.015.274-.026.411-.047.075-.011.147-.027.222-.038.023-.004.045-.008.068-.012 31.647-4.909 58.265-18.965 76.985-40.671 18.763-21.756 28.872-50.358 29.232-82.713.034-2.938-1.227-5.741-3.445-7.667zm-104.577-12.941c11.163 16.168 17.694 33.702 19.126 51.446-7.972 9.269-14.372 19.78-19.123 31.288-4.748-11.505-11.142-22.012-19.106-31.279 1.409-17.737 7.932-35.275 19.103-51.455zm-87.296 32.832c44.171 11.048 71.922 43.286 76.597 88.982-44.194-11.052-71.945-43.286-76.597-88.982zm97.995 88.981c4.676-45.693 32.434-77.93 76.618-88.979-4.675 45.693-32.433 77.93-76.618 88.979z"/><path d="m134.867 366.778c-5.526 0-10.006 4.48-10.006 10.006v.058c0 5.526 4.48 9.978 10.006 9.978s10.006-4.51 10.006-10.035c0-5.527-4.48-10.007-10.006-10.007z"/></g></svg>